D:\PredSimResults\Vitruvian_Man\IG_v25ms_ATx70.mot
version=1
nRows=7
nColumns=31
inDegrees=yes
endheader
                time	         pelvis_tilt	           pelvis_tx	           pelvis_ty	       hip_flexion_r	        knee_angle_r	       ankle_angle_r	       hip_flexion_l	        knee_angle_l	       ankle_angle_l	    lumbar_extension	          arm_flex_r	          arm_flex_l	hamstrings_r/activation	bifemsh_r/activation	glut_max_r/activation	iliopsoas_r/activation	rect_fem_r/activation	  vasti_r/activation	gastroc_r/activation	 soleus_r/activation	tib_ant_r/activation	hamstrings_l/activation	bifemsh_l/activation	glut_max_l/activation	iliopsoas_l/activation	rect_fem_l/activation	  vasti_l/activation	gastroc_l/activation	 soleus_l/activation	tib_ant_l/activation	
          0.55865350	         -7.42775714	          1.38115842	          0.98653015	         34.61981787	        -22.60546593	          9.53716097	          4.01644106	        -35.88839778	        -15.56261440	         -6.98388151	         15.17930629	         15.17930729	          0.68226130	          0.05035084	          0.46127676	          0.05005989	          0.05424196	          0.12934027	          0.05001762	          0.05002332	          0.61481433	          0.05003960	          0.36196415	          0.05001475	          0.98273046	          0.52953013	          0.06551352	          0.18754058	          0.09595231	          0.42112993	
          0.56424003	         -7.40966319	          1.39668047	          0.98487983	         34.25427524	        -22.73564226	          9.36089799	          4.32979373	        -37.37750947	        -15.12702062	         -6.70805679	         14.86802594	         14.86802689	          0.62414840	          0.05459492	          0.51792683	          0.05001667	          0.05001790	          0.18669191	          0.05000744	          0.05000274	          0.68262126	          0.05650643	          0.35012763	          0.05001444	          0.98741010	          0.53728846	          0.05993364	          0.17157131	          0.08777994	          0.43743132	
          0.56982657	         -7.40694553	          1.41221054	          0.98294621	         33.94859160	        -23.39177037	          8.88491329	          4.74663862	        -38.93478215	        -14.60577825	         -6.40201638	         14.55101197	         14.55101288	          0.57098506	          0.05014421	          0.56322468	          0.05001721	          0.05006303	          0.29032420	          0.06529376	          0.06533378	          0.62450973	          0.06025312	          0.35691539	          0.05001474	          0.98640437	          0.64718533	          0.05482922	          0.15696209	          0.08030369	          0.44568458	
          0.57541310	         -7.41878368	          1.42771267	          0.98079189	         33.66223295	        -24.39743035	          8.29903661	          5.26712256	        -40.54104468	        -14.11207456	         -6.07609961	         14.23546030	         14.23546116	          0.52234995	          0.05006853	          0.60828976	          0.05001715	          0.05004556	          0.39074570	          0.05974670	          0.05977267	          0.72639354	          0.08407768	          0.35534629	          0.05001136	          0.93675019	          0.69368192	          0.05016010	          0.14359718	          0.07346435	          0.44796084	
          0.58099964	         -7.43958849	          1.44313963	          0.97850757	         33.34236931	        -25.41277388	          8.12242506	          5.88338095	        -42.18022853	        -13.55161806	         -5.74779946	         13.93091819	         13.93091900	          0.47785744	          0.05013576	          0.63532182	          0.05001233	          0.05001785	          0.40042456	          0.05466335	          0.05468284	          0.80063717	          0.09616026	          0.34685717	          0.05001875	          0.88548392	          0.77642292	          0.05000355	          0.13137047	          0.06720770	          0.44922290	
          0.58658617	         -7.46649597	          1.45839518	          0.97619179	         33.02943856	        -26.40445792	          7.81912326	          6.59538443	        -43.83448771	        -12.88165400	         -5.43688670	         13.65300355	         13.65300430	          0.43715471	          0.05154059	          0.64900131	          0.05001123	          0.05001351	          0.36634081	          0.05001852	          0.05002677	          0.85473443	          0.08801286	          0.35199065	          0.05002584	          0.82939438	          0.83707432	          0.05000474	          0.12018499	          0.06148416	          0.44511152	
          0.59217271	         -7.49334031	          1.47342497	          0.97389984	         32.77014427	        -27.44782900	          7.36220092	          7.39329758	        -45.47771241	        -12.13064696	         -5.16000439	         13.41236917	         13.41236986	          0.39991897	          0.06580169	          0.65724565	          0.05001789	          0.05001355	          0.46124752	          0.05000937	          0.05000284	          0.89415044	          0.08052794	          0.38294341	          0.05001330	          0.77472116	          0.88127791	          0.05000425	          0.10995209	          0.05624850	          0.43863710	
